<svg width="671" height="830" viewBox="0 0 671 830" fill="none" xmlns="http://www.w3.org/2000/svg">
<path d="M573.384 0.5H102C45.9432 0.5 0.500061 45.9431 0.500061 102V728C0.500061 784.057 45.9431 829.5 102 829.5H471.385C527.439 829.5 573.114 784.095 576.393 728.108C581.697 637.55 595.024 505.993 628.531 416.824C639.639 387.265 655.349 339.174 663.862 285.738C672.376 232.295 673.683 173.552 656.028 122.664C634.791 61.4537 614.045 30.9067 598.653 15.6678C590.96 8.05055 584.606 4.26029 580.199 2.37372C577.995 1.43027 576.275 0.961996 575.115 0.729505C574.535 0.613239 574.095 0.55587 573.803 0.527564C573.658 0.51341 573.549 0.50652 573.479 0.503167C573.444 0.501491 573.419 0.500699 573.403 0.500326L573.387 0.500023L573.385 0.5H573.384Z" fill="#324E7B" stroke="#BFDBFE"/>
</svg>
